<svg id="svg" version="1.1" xmlns="http://www.w3.org/2000/svg" xmlns:xlink="http://www.w3.org/1999/xlink" width="400" height="100" viewBox="-10, 20, 400, 100"><g id="svgg"><path id="path0" d="M70.275 36.744 C 62.094 37.614,50.464 42.601,46.635 46.881 C 45.277 48.399,45.813 52.123,47.482 52.760 L 48.421 53.119 50.443 51.241 C 51.555 50.208,53.105 48.760,53.887 48.023 C 60.525 41.761,79.424 43.024,86.769 50.221 C 93.680 56.991,91.708 68.501,82.219 76.777 C 78.128 80.345,72.637 82.902,72.769 81.178 C 72.840 80.244,74.601 74.879,77.217 67.626 C 79.516 61.253,80.819 56.538,81.410 52.455 L 81.730 50.238 81.152 49.495 C 80.834 49.086,80.511 48.661,80.436 48.550 C 80.204 48.207,79.035 49.211,78.051 50.598 C 75.268 54.520,71.508 63.038,66.124 77.619 L 64.236 82.733 62.651 83.564 C 61.779 84.021,60.696 84.743,60.245 85.169 L 59.424 85.944 59.752 86.728 C 59.932 87.158,60.351 87.861,60.683 88.288 C 61.016 88.716,61.350 89.174,61.427 89.307 C 61.504 89.440,60.764 91.458,59.783 93.791 C 54.588 106.148,55.342 107.884,64.119 103.779 C 66.474 102.677,66.598 102.482,66.728 99.682 C 66.853 96.980,67.095 96.001,68.718 91.631 C 70.162 87.742,69.071 88.544,77.865 84.908 C 93.199 78.567,97.089 75.332,99.247 67.123 C 104.133 48.536,90.806 34.561,70.275 36.744 M221.806 39.313 C 219.917 39.838,218.829 41.779,219.431 43.547 C 219.772 44.546,219.770 81.958,219.429 84.777 C 219.160 87.006,219.743 87.686,221.925 87.686 C 225.272 87.686,227.243 85.918,226.446 83.630 C 226.179 82.862,226.120 81.400,226.118 75.402 L 226.115 68.107 227.164 66.788 C 229.859 63.402,232.720 61.807,233.477 63.270 C 233.900 64.087,233.866 82.694,233.439 83.439 C 232.578 84.946,233.377 87.017,234.992 87.466 C 238.317 88.390,241.873 85.735,240.227 83.558 C 239.961 83.207,239.915 81.379,239.915 71.229 C 239.915 57.775,239.907 57.691,238.432 56.216 C 236.450 54.235,232.018 55.691,227.647 59.760 L 226.101 61.199 226.193 52.521 C 226.244 47.748,226.347 43.365,226.422 42.781 C 226.721 40.435,224.304 38.618,221.806 39.313 M314.916 54.261 C 307.444 55.898,301.527 62.702,302.536 68.496 C 303.549 74.308,307.076 75.330,314.955 72.093 C 318.480 70.645,319.448 70.519,320.324 71.396 C 321.279 72.351,321.207 75.361,320.184 77.247 C 317.519 82.162,308.917 84.676,308.917 80.539 C 308.917 76.916,303.951 77.519,303.179 81.236 C 302.602 84.019,304.594 86.565,308.228 87.687 C 312.399 88.975,318.617 86.959,322.888 82.932 C 328.602 77.544,328.659 67.448,322.986 65.515 C 320.833 64.781,319.016 65.079,314.295 66.941 C 308.968 69.041,307.433 68.247,309.251 64.331 C 310.963 60.647,318.150 57.841,320.387 59.984 C 322.034 61.561,324.418 60.276,324.415 57.813 C 324.411 54.757,320.066 53.132,314.916 54.261 M118.365 54.582 C 106.894 56.257,99.477 77.876,107.473 86.331 C 115.207 94.508,129.336 81.926,128.815 67.326 C 128.493 58.300,124.687 53.659,118.365 54.582 M135.672 54.507 C 133.759 54.872,132.681 57.646,133.641 59.734 C 133.885 60.267,135.492 70.063,137.765 84.884 C 138.409 89.086,143.663 89.034,144.279 84.820 C 144.481 83.445,149.828 68.795,149.975 69.214 C 150.037 69.390,150.940 73.336,151.981 77.984 C 154.041 87.176,154.045 87.187,155.605 87.654 C 158.281 88.456,160.085 87.643,160.085 85.634 C 160.085 83.035,161.282 78.320,163.472 72.293 C 165.231 67.453,165.540 66.259,165.939 62.755 C 166.127 61.111,166.415 59.513,166.579 59.203 C 167.610 57.264,166.259 54.989,164.076 54.989 C 161.455 54.989,159.482 56.784,160.066 58.638 C 160.881 61.231,160.584 63.894,158.910 69.002 C 158.279 70.929,157.579 73.270,157.354 74.204 C 157.130 75.138,156.891 75.759,156.823 75.584 C 156.383 74.440,153.312 61.399,153.200 60.191 C 152.829 56.220,151.690 54.992,148.949 55.605 C 146.722 56.104,145.959 57.811,146.879 60.242 L 147.262 61.253 144.612 68.635 C 143.155 72.696,141.901 75.944,141.826 75.854 C 141.462 75.418,139.229 58.982,139.463 58.467 C 140.579 56.018,138.598 53.948,135.672 54.507 M259.746 54.560 C 250.568 55.941,243.454 69.591,245.988 80.956 C 249.568 97.004,270.098 86.203,270.122 68.259 C 270.135 58.921,266.107 53.603,259.746 54.560 M181.152 55.071 C 174.118 56.859,168.808 65.822,168.244 76.858 C 167.760 86.314,173.558 90.791,181.917 87.415 C 186.309 85.641,191.295 80.429,191.295 77.612 C 191.295 74.015,185.573 73.811,184.905 77.384 C 184.067 81.873,176.862 84.520,174.842 81.082 C 174.323 80.198,174.127 76.320,174.509 74.481 L 174.752 73.312 176.919 72.825 C 187.588 70.431,191.612 67.929,191.604 63.694 C 191.592 57.815,186.590 53.688,181.152 55.071 M343.418 55.160 C 331.859 58.606,325.859 83.415,335.549 87.702 C 338.660 89.078,343.258 88.465,347.047 86.169 C 350.243 84.232,353.928 79.701,353.928 77.709 C 353.928 73.992,348.071 73.781,347.480 77.477 C 346.942 80.837,340.939 84.034,338.499 82.259 C 337.191 81.308,336.901 80.278,337.004 76.964 C 337.125 73.103,336.822 73.474,340.610 72.560 C 350.867 70.085,354.258 67.849,354.209 63.588 C 354.141 57.594,348.922 53.518,343.418 55.160 M198.934 55.315 C 197.098 55.881,196.455 56.907,196.935 58.504 C 197.184 59.329,197.240 61.659,197.240 71.168 L 197.240 82.820 196.762 83.466 C 194.778 86.149,197.879 88.493,202.029 87.448 C 204.013 86.949,204.941 84.599,203.822 82.909 C 203.422 82.306,203.400 81.900,203.398 75.301 L 203.397 68.331 204.128 67.233 C 206.061 64.330,208.857 61.638,209.387 62.168 C 209.656 62.438,209.676 63.316,209.447 64.778 C 209.181 66.472,210.156 67.304,212.408 67.304 C 215.046 67.304,215.837 66.304,215.785 63.032 C 215.646 54.208,211.738 52.853,204.970 59.281 L 203.349 60.821 203.474 59.763 C 203.542 59.181,203.659 58.243,203.733 57.679 C 204.007 55.586,201.716 54.457,198.934 55.315 M276.788 55.649 C 275.781 56.181,275.263 57.264,275.488 58.371 C 275.573 58.788,275.700 64.862,275.772 71.868 C 275.900 84.418,275.909 84.620,276.364 85.470 C 278.642 89.725,283.190 89.508,287.953 84.917 L 289.846 83.094 289.738 83.851 C 289.679 84.267,289.564 84.871,289.482 85.193 C 289.102 86.696,290.262 87.686,292.399 87.685 C 295.832 87.682,297.478 85.960,296.275 83.634 C 295.989 83.080,295.951 81.341,295.977 69.944 C 296.014 54.185,296.298 55.300,292.285 55.450 C 289.857 55.541,289.253 56.057,289.495 57.836 C 289.576 58.430,289.682 62.777,289.730 67.495 L 289.818 76.073 288.622 77.635 C 285.678 81.479,282.786 82.936,282.267 80.836 C 282.110 80.200,282.293 59.389,282.467 58.174 C 282.819 55.701,279.493 54.222,276.788 55.649 M120.377 60.682 C 123.349 62.878,123.213 73.120,120.144 78.270 C 116.882 83.743,112.491 84.603,111.141 80.033 C 108.599 71.428,115.462 57.050,120.377 60.682 M261.132 60.396 C 264.756 62.270,264.648 73.513,260.953 78.953 C 257.812 83.578,254.021 84.386,252.648 80.724 C 249.686 72.823,255.984 57.734,261.132 60.396 M184.504 60.897 C 186.111 61.738,186.741 64.341,185.545 65.193 C 184.560 65.894,181.136 66.954,176.361 68.035 C 175.835 68.154,175.998 67.471,176.977 65.455 C 178.821 61.663,182.134 59.656,184.504 60.897 M347.045 60.851 C 348.590 61.584,349.344 64.089,348.309 65.048 C 347.246 66.034,338.823 68.435,338.676 67.794 C 338.636 67.623,338.991 66.677,339.464 65.690 C 341.354 61.752,344.590 59.686,347.045 60.851 " stroke="none" fill="#000000" fill-rule="evenodd"></path></g></svg>